
<svg xmlns="http://www.w3.org/2000/svg" width="0" height="0" style="display:none">
  <defs>
    <symbol id="ic-search" viewBox="0 0 24 24" fill="none" stroke="currentColor" stroke-width="1.8" stroke-linecap="round">
      <circle cx="11" cy="11" r="6.5"></circle><path d="m20 20-3.8-3.8"></path>
    </symbol>
    <symbol id="ic-settings" viewBox="0 0 24 24" fill="none" stroke="currentColor" stroke-width="1.8" stroke-linecap="round" stroke-linejoin="round">
      <circle cx="12" cy="12" r="2.8"></circle>
      <path d="M12 2v3M12 19v3M4.2 4.2l2.1 2.1M17.7 17.7l2.1 2.1M2 12h3M19 12h3M4.2 19.8l2.1-2.1M17.7 6.3l2.1-2.1"></path>
    </symbol>
    <symbol id="ic-pin" viewBox="0 0 24 24" fill="none" stroke="currentColor" stroke-width="1.8" stroke-linejoin="round" stroke-linecap="round">
      <path d="M14 3l7 7-4 1-4 4-1 5-4-4-5 5v-1l5-5-4-4 5-1 4-4z"></path>
    </symbol>
    <symbol id="ic-hide" viewBox="0 0 24 24" fill="none" stroke="currentColor" stroke-width="1.8" stroke-linecap="round" stroke-linejoin="round">
      <path d="M3 3l18 18"></path><path d="M10.6 6.2A10 10 0 0 1 21 12c-.6 1.2-1.4 2.3-2.3 3.2M6.1 6.1C4.3 7.5 2.8 9.5 2 12a10 10 0 0 0 13.9 5.9"></path><circle cx="12" cy="12" r="3"></circle>
    </symbol>
    <symbol id="ic-rollup" viewBox="0 0 24 24" fill="none" stroke="currentColor" stroke-width="1.8" stroke-linecap="round" stroke-linejoin="round">
      <path d="M6 9l6-6 6 6"></path><path d="M4 15h16M4 20h16"></path>
    </symbol>
    <symbol id="ic-peek" viewBox="0 0 24 24" fill="none" stroke="currentColor" stroke-width="1.8" stroke-linecap="round" stroke-linejoin="round">
      <rect x="3" y="3" width="18" height="18" rx="3"></rect><path d="M8 10h8M8 14h5"></path>
      <circle cx="18" cy="18" r="1.3" fill="currentColor" stroke="none"></circle>
    </symbol>
    <symbol id="ic-add" viewBox="0 0 24 24" fill="none" stroke="currentColor" stroke-width="1.8" stroke-linecap="round">
      <rect x="3" y="3" width="18" height="18" rx="3"></rect><path d="M12 8v8M8 12h8"></path>
    </symbol>
    <symbol id="ic-lock" viewBox="0 0 24 24" fill="none" stroke="currentColor" stroke-width="1.8" stroke-linecap="round" stroke-linejoin="round">
      <rect x="5" y="11" width="14" height="10" rx="2"></rect><path d="M8 11V8a4 4 0 0 1 8 0v3"></path>
    </symbol>
    <symbol id="ic-merge" viewBox="0 0 24 24" fill="none" stroke="currentColor" stroke-width="1.8" stroke-linecap="round" stroke-linejoin="round">
      <rect x="3" y="5" width="7" height="14" rx="1.5"></rect><rect x="14" y="5" width="7" height="14" rx="1.5"></rect>
      <path d="M10.5 12h3M12 10.5l1.5 1.5-1.5 1.5"></path>
    </symbol>
    <symbol id="ic-split" viewBox="0 0 24 24" fill="none" stroke="currentColor" stroke-width="1.8" stroke-linecap="round" stroke-linejoin="round">
      <rect x="3" y="5" width="18" height="14" rx="2"></rect><path d="M12 5v14"></path>
    </symbol>
    <symbol id="ic-trash" viewBox="0 0 24 24" fill="none" stroke="currentColor" stroke-width="1.8" stroke-linecap="round" stroke-linejoin="round">
      <path d="M4 7h16M9 7V4h6v3M6 7l1 13a2 2 0 0 0 2 2h6a2 2 0 0 0 2-2l1-13"></path>
      <path d="M10 11v7M14 11v7"></path>
    </symbol>
    <symbol id="ic-rule" viewBox="0 0 24 24" fill="none" stroke="currentColor" stroke-width="1.8" stroke-linecap="round" stroke-linejoin="round">
      <path d="M4 6h10M4 12h16M4 18h7"></path><circle cx="18" cy="6" r="2"></circle><circle cx="14" cy="18" r="2"></circle>
    </symbol>
    <symbol id="ic-portal" viewBox="0 0 24 24" fill="none" stroke="currentColor" stroke-width="1.8" stroke-linecap="round" stroke-linejoin="round">
      <ellipse cx="12" cy="12" rx="4" ry="9"></ellipse><ellipse cx="12" cy="12" rx="9" ry="4"></ellipse>
    </symbol>
    <symbol id="ic-theme" viewBox="0 0 24 24" fill="none" stroke="currentColor" stroke-width="1.8" stroke-linecap="round" stroke-linejoin="round">
      <path d="M12 3a9 9 0 0 0 0 18 4 4 0 0 0 0-8 4 4 0 0 1 0-8z"></path>
    </symbol>
    <symbol id="ic-close" viewBox="0 0 24 24" fill="none" stroke="currentColor" stroke-width="1.8" stroke-linecap="round">
      <path d="M6 6l12 12M18 6L6 18"></path>
    </symbol>
    <symbol id="ic-min" viewBox="0 0 24 24" fill="none" stroke="currentColor" stroke-width="1.8" stroke-linecap="round">
      <path d="M5 12h14"></path>
    </symbol>
    <symbol id="ic-max" viewBox="0 0 24 24" fill="none" stroke="currentColor" stroke-width="1.8">
      <rect x="5" y="5" width="14" height="14" rx="1.5"></rect>
    </symbol>
    <symbol id="ic-keyboard" viewBox="0 0 24 24" fill="none" stroke="currentColor" stroke-width="1.8" stroke-linecap="round" stroke-linejoin="round">
      <rect x="2" y="6" width="20" height="12" rx="2"></rect>
      <path d="M6 10h.01M10 10h.01M14 10h.01M18 10h.01M7 14h10"></path>
    </symbol>
    <symbol id="ic-grid" viewBox="0 0 24 24" fill="none" stroke="currentColor" stroke-width="1.8">
      <rect x="4" y="4" width="7" height="7" rx="1"></rect><rect x="13" y="4" width="7" height="7" rx="1"></rect>
      <rect x="4" y="13" width="7" height="7" rx="1"></rect><rect x="13" y="13" width="7" height="7" rx="1"></rect>
    </symbol>
    <symbol id="ic-info" viewBox="0 0 24 24" fill="none" stroke="currentColor" stroke-width="1.8" stroke-linecap="round" stroke-linejoin="round">
      <circle cx="12" cy="12" r="9"></circle><path d="M12 11v5M12 8v.01"></path>
    </symbol>
  </defs>
</svg>